<svg width="84" height="49" viewBox="0 0 84 49" fill="none" xmlns="http://www.w3.org/2000/svg">
<path d="M10.9393 0.939339C11.5251 0.353554 12.4749 0.353554 13.0607 0.939339L22.6066 10.4853C23.1924 11.0711 23.1924 12.0208 22.6066 12.6066C22.0208 13.1924 21.0711 13.1924 20.4853 12.6066L12 4.12132L3.51472 12.6066C2.92893 13.1924 1.97919 13.1924 1.3934 12.6066C0.807613 12.0208 0.807613 11.0711 1.3934 10.4853L10.9393 0.939339ZM10.5 48L10.5 2L13.5 2L13.5 48L10.5 48Z" fill="white" fill-opacity="0.8"/>
<path d="M53.0786 27.5264C53.0786 28.3564 52.8271 29.0376 52.3242 29.5698C51.7383 30.1899 50.8594 30.5 49.6875 30.5H47.8125V29.1816H49.6143C50.1514 29.1816 50.5615 29.1157 50.8447 28.9839C51.3916 28.7251 51.665 28.2148 51.665 27.4531C51.665 26.9258 51.4893 26.5083 51.1377 26.2007C50.791 25.8882 50.3271 25.7319 49.7461 25.7319H47.8125V24.4136H49.2261C49.7632 24.4136 50.2246 24.2793 50.6104 24.0107C50.9961 23.7373 51.189 23.3516 51.189 22.8535C51.189 22.3506 51.0083 21.9453 50.647 21.6377C50.2856 21.3252 49.8413 21.1689 49.314 21.1689C48.7524 21.1689 48.2861 21.3447 47.915 21.6963C47.4854 22.0967 47.2705 22.6558 47.2705 23.3735V30.5H45.8643V23.3442C45.8643 22.314 46.1792 21.4741 46.8091 20.8247C47.439 20.1753 48.2324 19.8506 49.1895 19.8506C50.2734 19.8506 51.1304 20.1655 51.7603 20.7954C52.3169 21.3569 52.5952 22.0308 52.5952 22.8169C52.5952 23.3687 52.4902 23.8203 52.2803 24.1719C52.124 24.4502 51.875 24.6846 51.5332 24.875C52.0215 25.124 52.3999 25.4829 52.6685 25.9517C52.9419 26.4155 53.0786 26.9404 53.0786 27.5264ZM60.6226 28.5371C60.6226 28.8643 60.542 29.1694 60.3809 29.4526C60.1221 29.9019 59.7534 30.2021 59.2749 30.3535C58.9624 30.4512 58.4863 30.5 57.8467 30.5H56.1401V29.2402H57.8027C58.252 29.2402 58.5718 29.2061 58.7622 29.1377C59.104 29.0059 59.2749 28.7544 59.2749 28.3833C59.2749 27.9731 59.0845 27.6997 58.7036 27.563C58.4546 27.4702 58.0542 27.4238 57.5024 27.4238H56.1401V26.2227H57.2607C57.8516 26.2227 58.2568 26.1616 58.4766 26.0396C58.6963 25.9126 58.8062 25.7002 58.8062 25.4023C58.8062 25.0703 58.6792 24.8237 58.4253 24.6626C58.1714 24.4966 57.8442 24.4136 57.4438 24.4136C56.8628 24.4136 56.4087 24.5723 56.0815 24.8896C55.7593 25.2021 55.5981 25.6465 55.5981 26.2227V30.5H54.2798V25.937C54.2798 25.0679 54.5801 24.3867 55.1807 23.8936C55.7812 23.3955 56.5112 23.1465 57.3706 23.1465C58.2397 23.1465 58.9209 23.3516 59.4141 23.7617C59.9121 24.1719 60.1611 24.6724 60.1611 25.2632C60.1611 25.605 60.0708 25.9004 59.8901 26.1494C59.7095 26.3984 59.4702 26.5938 59.1724 26.7354C59.6021 26.833 59.9512 27.0454 60.2197 27.3726C60.4883 27.6997 60.6226 28.0879 60.6226 28.5371ZM68.8989 27.3066C68.8306 28.0635 68.5815 28.7178 68.1519 29.2695C67.8687 29.6309 67.5122 29.9312 67.0825 30.1704C66.814 30.3315 66.5088 30.4512 66.167 30.5293C65.8301 30.6074 65.4907 30.6465 65.1489 30.6465C64.5679 30.6465 64.0088 30.5171 63.4717 30.2583C62.8418 29.9507 62.3413 29.5039 61.9702 28.918C61.5991 28.332 61.4136 27.6582 61.4136 26.8965C61.4136 25.8271 61.77 24.936 62.4829 24.2231C63.2007 23.5054 64.0894 23.1465 65.1489 23.1465C65.8911 23.1465 66.5698 23.3369 67.1851 23.7178C67.8003 24.0986 68.2812 24.6699 68.6279 25.4316L63.772 28.127L63.23 27.0796L66.7822 25.1021C66.543 24.8384 66.2769 24.6577 65.9839 24.5601C65.6958 24.4624 65.4077 24.4136 65.1196 24.4136C64.4214 24.4136 63.855 24.6455 63.4204 25.1094C62.9858 25.5732 62.7686 26.1689 62.7686 26.8965C62.7686 27.3896 62.8662 27.8218 63.0615 28.1929C63.2617 28.5591 63.5229 28.8423 63.8452 29.0425C64.0259 29.1548 64.2261 29.2402 64.4458 29.2988C64.6655 29.3574 64.8901 29.3867 65.1196 29.3867C65.3882 29.3867 65.6299 29.3647 65.8447 29.3208C66.0596 29.2769 66.272 29.1938 66.4819 29.0718C66.8042 28.8862 67.0654 28.6201 67.2656 28.2734C67.4658 27.9268 67.5659 27.5483 67.5659 27.1382L68.8989 27.3066ZM77.4683 27.0063C77.4683 28.1147 77.085 29.0132 76.3184 29.7017C75.6152 30.3315 74.7583 30.6465 73.7476 30.6465C73.3813 30.6465 73.0225 30.5903 72.6709 30.478C72.3193 30.3608 72.0093 30.1875 71.7407 29.958V28.5811C72.0483 28.8691 72.3511 29.0767 72.6489 29.2036C72.9517 29.3257 73.2642 29.3867 73.5864 29.3867C74.3335 29.3867 74.9414 29.1621 75.4102 28.7129C75.8838 28.2637 76.1206 27.6851 76.1206 26.9771C76.1206 26.2251 75.8838 25.6099 75.4102 25.1313C74.9414 24.6528 74.3579 24.4136 73.6597 24.4136C73.0005 24.4136 72.4609 24.6064 72.041 24.9922C71.4795 25.5146 71.1987 26.3447 71.1987 27.4824V33.7666H69.8804V27.3799C69.8804 25.8613 70.3003 24.7358 71.1401 24.0034C71.7993 23.4321 72.6343 23.1465 73.645 23.1465C74.6948 23.1465 75.5859 23.4932 76.3184 24.1865C77.085 24.9141 77.4683 25.854 77.4683 27.0063ZM83.6133 30.5C83.0029 30.5 82.4512 30.3511 81.958 30.0532C81.4648 29.7505 81.0767 29.3403 80.7935 28.8228C80.5151 29.3306 80.1294 29.7383 79.6362 30.0459C79.1479 30.3486 78.5938 30.5 77.9736 30.5V29.2402C78.5547 29.2402 79.0454 29.0596 79.4458 28.6982C79.9048 28.2783 80.1343 27.6777 80.1343 26.8965C80.1343 26.1299 79.9048 25.5366 79.4458 25.1167C79.0454 24.7456 78.5547 24.5601 77.9736 24.5601V23.3003C78.584 23.3003 79.1357 23.4517 79.6289 23.7544C80.127 24.0522 80.5151 24.46 80.7935 24.9775C81.0767 24.4697 81.4624 24.0645 81.9507 23.7617C82.439 23.4541 82.9932 23.3003 83.6133 23.3003V24.5601C83.0371 24.5601 82.5488 24.7407 82.1484 25.1021C81.6846 25.522 81.4526 26.1201 81.4526 26.8965C81.4526 27.668 81.6846 28.2637 82.1484 28.6836C82.5488 29.0547 83.0371 29.2402 83.6133 29.2402V30.5Z" fill="white" fill-opacity="0.8"/>
</svg>
