<svg width="18" height="18" viewBox="0 0 18 18" fill="none" xmlns="http://www.w3.org/2000/svg">
<path d="M9 1.62095C11.4047 1.62095 11.6895 1.63149 12.6352 1.67368C13.5141 1.71235 13.9887 1.86001 14.3051 1.98306C14.7234 2.14478 15.0258 2.34165 15.3387 2.65454C15.6551 2.97095 15.8484 3.26978 16.0102 3.68813C16.1332 4.00454 16.2809 4.48267 16.3195 5.35806C16.3617 6.30727 16.3723 6.59204 16.3723 8.99321C16.3723 11.3979 16.3617 11.6827 16.3195 12.6284C16.2809 13.5073 16.1332 13.9819 16.0102 14.2983C15.8484 14.7167 15.6516 15.019 15.3387 15.3319C15.0223 15.6483 14.7234 15.8417 14.3051 16.0034C13.9887 16.1264 13.5105 16.2741 12.6352 16.3127C11.6859 16.3549 11.4012 16.3655 9 16.3655C6.59531 16.3655 6.31055 16.3549 5.36484 16.3127C4.48594 16.2741 4.01133 16.1264 3.69492 16.0034C3.27656 15.8417 2.97422 15.6448 2.66133 15.3319C2.34492 15.0155 2.15156 14.7167 1.98984 14.2983C1.8668 13.9819 1.71914 13.5038 1.68047 12.6284C1.63828 11.6792 1.62773 11.3944 1.62773 8.99321C1.62773 6.58852 1.63828 6.30376 1.68047 5.35806C1.71914 4.47915 1.8668 4.00454 1.98984 3.68813C2.15156 3.26978 2.34844 2.96743 2.66133 2.65454C2.97773 2.33813 3.27656 2.14478 3.69492 1.98306C4.01133 1.86001 4.48945 1.71235 5.36484 1.67368C6.31055 1.63149 6.59531 1.62095 9 1.62095ZM9 0.000244141C6.55664 0.000244141 6.25078 0.010791 5.29102 0.0529785C4.33477 0.095166 3.67734 0.249853 3.10781 0.471338C2.51367 0.703369 2.01094 1.00923 1.51172 1.51196C1.00898 2.01118 0.703125 2.51392 0.471094 3.10454C0.249609 3.67759 0.0949219 4.33149 0.0527344 5.28774C0.0105469 6.25102 0 6.55688 0 9.00024C0 11.4436 0.0105469 11.7495 0.0527344 12.7092C0.0949219 13.6655 0.249609 14.3229 0.471094 14.8924C0.703125 15.4866 1.00898 15.9893 1.51172 16.4885C2.01094 16.9877 2.51367 17.2971 3.1043 17.5256C3.67734 17.7471 4.33125 17.9018 5.2875 17.944C6.24727 17.9862 6.55312 17.9967 8.99648 17.9967C11.4398 17.9967 11.7457 17.9862 12.7055 17.944C13.6617 17.9018 14.3191 17.7471 14.8887 17.5256C15.4793 17.2971 15.982 16.9877 16.4813 16.4885C16.9805 15.9893 17.2898 15.4866 17.5184 14.8959C17.7398 14.3229 17.8945 13.669 17.9367 12.7127C17.9789 11.753 17.9895 11.4471 17.9895 9.00376C17.9895 6.5604 17.9789 6.25454 17.9367 5.29478C17.8945 4.33853 17.7398 3.6811 17.5184 3.11157C17.2969 2.51392 16.991 2.01118 16.4883 1.51196C15.9891 1.01274 15.4863 0.703369 14.8957 0.474853C14.3227 0.253369 13.6688 0.0986816 12.7125 0.0564941C11.7492 0.010791 11.4434 0.000244141 9 0.000244141Z" fill="white"/>
<path d="M9 4.3772C6.44766 4.3772 4.37695 6.4479 4.37695 9.00024C4.37695 11.5526 6.44766 13.6233 9 13.6233C11.5523 13.6233 13.623 11.5526 13.623 9.00024C13.623 6.4479 11.5523 4.3772 9 4.3772ZM9 11.9991C7.34414 11.9991 6.00117 10.6561 6.00117 9.00024C6.00117 7.34438 7.34414 6.00142 9 6.00142C10.6559 6.00142 11.9988 7.34438 11.9988 9.00024C11.9988 10.6561 10.6559 11.9991 9 11.9991Z" fill="white"/>
<path d="M14.8852 4.19429C14.8852 4.79195 14.4 5.27359 13.8059 5.27359C13.2082 5.27359 12.7266 4.78843 12.7266 4.19429C12.7266 3.59663 13.2117 3.11499 13.8059 3.11499C14.4 3.11499 14.8852 3.60015 14.8852 4.19429Z" fill="white"/>
</svg>
