<svg width="26" height="26" viewBox="0 0 26 26" fill="none" xmlns="http://www.w3.org/2000/svg">
<g clip-path="url(#clip0_2001_125)" filter="url(#filter0_dd_2001_125)">
<path fill-rule="evenodd" clip-rule="evenodd" d="M22 9.00024C22 13.9708 17.9706 18.0002 13 18.0002C8.02944 18.0002 4 13.9708 4 9.00024C4 4.02968 8.02944 0.000244141 13 0.000244141C17.9706 0.000244141 22 4.02968 22 9.00024ZM13.3225 6.64444C12.4471 7.00854 10.6976 7.76214 8.07392 8.90524C7.64787 9.07466 7.42469 9.24041 7.40438 9.40247C7.37004 9.67637 7.71303 9.78422 8.1801 9.93109C8.24364 9.95106 8.30947 9.97176 8.37695 9.9937C8.83648 10.1431 9.45462 10.3178 9.77597 10.3248C10.0675 10.3311 10.3928 10.2109 10.752 9.96425C13.2034 8.30949 14.4688 7.4731 14.5482 7.45507C14.6043 7.44235 14.682 7.42635 14.7346 7.47313C14.7872 7.5199 14.782 7.60848 14.7765 7.63225C14.7425 7.7771 13.3961 9.02881 12.6993 9.67658C12.4821 9.87852 12.3281 10.0218 12.2966 10.0545C12.226 10.1278 12.1541 10.1971 12.085 10.2637C11.6581 10.6752 11.3379 10.9839 12.1027 11.4878C12.4702 11.73 12.7643 11.9303 13.0577 12.1301C13.3781 12.3483 13.6977 12.5659 14.1112 12.837C14.2166 12.906 14.3172 12.9778 14.4152 13.0476C14.7881 13.3135 15.1231 13.5523 15.5369 13.5142C15.7774 13.4921 16.0258 13.266 16.152 12.5915C16.4502 10.9976 17.0362 7.54409 17.1717 6.12097C17.1835 5.99629 17.1686 5.83672 17.1566 5.76667C17.1446 5.69663 17.1196 5.59683 17.0285 5.52294C16.9207 5.43545 16.7542 5.417 16.6798 5.41831C16.3413 5.42427 15.8219 5.60486 13.3225 6.64444Z" fill="white"/>
</g>
<defs>
<filter id="filter0_dd_2001_125" x="0" y="0.000244141" width="26" height="26" filterUnits="userSpaceOnUse" color-interpolation-filters="sRGB">
<feFlood flood-opacity="0" result="BackgroundImageFix"/>
<feColorMatrix in="SourceAlpha" type="matrix" values="0 0 0 0 0 0 0 0 0 0 0 0 0 0 0 0 0 0 127 0" result="hardAlpha"/>
<feOffset dy="4"/>
<feGaussianBlur stdDeviation="2"/>
<feComposite in2="hardAlpha" operator="out"/>
<feColorMatrix type="matrix" values="0 0 0 0 0 0 0 0 0 0 0 0 0 0 0 0 0 0 0.25 0"/>
<feBlend mode="normal" in2="BackgroundImageFix" result="effect1_dropShadow_2001_125"/>
<feColorMatrix in="SourceAlpha" type="matrix" values="0 0 0 0 0 0 0 0 0 0 0 0 0 0 0 0 0 0 127 0" result="hardAlpha"/>
<feOffset dy="4"/>
<feGaussianBlur stdDeviation="2"/>
<feComposite in2="hardAlpha" operator="out"/>
<feColorMatrix type="matrix" values="0 0 0 0 0 0 0 0 0 0 0 0 0 0 0 0 0 0 0.25 0"/>
<feBlend mode="normal" in2="effect1_dropShadow_2001_125" result="effect2_dropShadow_2001_125"/>
<feBlend mode="normal" in="SourceGraphic" in2="effect2_dropShadow_2001_125" result="shape"/>
</filter>
<clipPath id="clip0_2001_125">
<rect width="18" height="18" fill="white" transform="translate(4 0.000244141)"/>
</clipPath>
</defs>
</svg>
