<svg width="24" height="26" viewBox="0 0 24 26" fill="none" xmlns="http://www.w3.org/2000/svg">
<g clip-path="url(#clip0_2001_131)" filter="url(#filter0_dd_2001_131)">
<path d="M15.8044 0.000244141H12.7709V12.2611C12.7709 13.722 11.6041 14.922 10.1522 14.922C8.70025 14.922 7.53352 13.722 7.53352 12.2611C7.53352 10.8263 8.67433 9.65239 10.0744 9.60024V6.52199C6.98904 6.57414 4.5 9.10459 4.5 12.2611C4.5 15.4437 7.04089 18.0002 10.1781 18.0002C13.3153 18.0002 15.8562 15.4176 15.8562 12.2611V5.97414C16.997 6.80894 18.3971 7.30459 19.875 7.33069V4.25242C17.5934 4.17416 15.8044 2.29589 15.8044 0.000244141Z" fill="white"/>
</g>
<defs>
<filter id="filter0_dd_2001_131" x="-1" y="0.000244141" width="26" height="26" filterUnits="userSpaceOnUse" color-interpolation-filters="sRGB">
<feFlood flood-opacity="0" result="BackgroundImageFix"/>
<feColorMatrix in="SourceAlpha" type="matrix" values="0 0 0 0 0 0 0 0 0 0 0 0 0 0 0 0 0 0 127 0" result="hardAlpha"/>
<feOffset dy="4"/>
<feGaussianBlur stdDeviation="2"/>
<feComposite in2="hardAlpha" operator="out"/>
<feColorMatrix type="matrix" values="0 0 0 0 0 0 0 0 0 0 0 0 0 0 0 0 0 0 0.25 0"/>
<feBlend mode="normal" in2="BackgroundImageFix" result="effect1_dropShadow_2001_131"/>
<feColorMatrix in="SourceAlpha" type="matrix" values="0 0 0 0 0 0 0 0 0 0 0 0 0 0 0 0 0 0 127 0" result="hardAlpha"/>
<feOffset dy="4"/>
<feGaussianBlur stdDeviation="2"/>
<feComposite in2="hardAlpha" operator="out"/>
<feColorMatrix type="matrix" values="0 0 0 0 0 0 0 0 0 0 0 0 0 0 0 0 0 0 0.25 0"/>
<feBlend mode="normal" in2="effect1_dropShadow_2001_131" result="effect2_dropShadow_2001_131"/>
<feBlend mode="normal" in="SourceGraphic" in2="effect2_dropShadow_2001_131" result="shape"/>
</filter>
<clipPath id="clip0_2001_131">
<rect width="18" height="18" fill="white" transform="translate(3 0.000244141)"/>
</clipPath>
</defs>
</svg>
