<svg width="32" height="32" viewBox="0 0 32 32" fill="none" xmlns="http://www.w3.org/2000/svg">
<path fill-rule="evenodd" clip-rule="evenodd" d="M26.6667 24H5.33335C5.33335 25.4728 6.52726 26.6667 8.00002 26.6667H24C25.4728 26.6667 26.6667 25.4728 26.6667 24ZM5.33335 21.3334C3.86059 21.3334 2.66669 22.5273 2.66669 24C2.66669 26.9456 5.0545 29.3334 8.00002 29.3334H24C26.9455 29.3334 29.3334 26.9456 29.3334 24C29.3334 22.5273 28.1394 21.3334 26.6667 21.3334H5.33335Z" fill="#C19D6D"/>
<path fill-rule="evenodd" clip-rule="evenodd" d="M19.54 8.53066C19.8337 7.97404 20 7.33975 20 6.66663C20 4.45749 18.2091 2.66663 16 2.66663C13.7909 2.66663 12 4.45749 12 6.66663C12 7.33975 12.1663 7.97404 12.46 8.53066C7.5605 10.0411 4 14.6048 4 20V22.6666C4 23.403 4.59695 24 5.33333 24H26.6667C27.403 24 28 23.403 28 22.6666V20C28 14.6048 24.4395 10.0411 19.54 8.53066ZM17.3333 6.66663C17.3333 7.40301 16.7364 7.99996 16 7.99996C15.2636 7.99996 14.6667 7.40301 14.6667 6.66663C14.6667 5.93025 15.2636 5.33329 16 5.33329C16.7364 5.33329 17.3333 5.93025 17.3333 6.66663ZM16 10.6666C10.8453 10.6666 6.66667 14.8453 6.66667 20V21.3333H25.3333V20C25.3333 14.8453 21.1547 10.6666 16 10.6666Z" fill="#C19D6D"/>
</svg>
