<svg width="32" height="32" viewBox="0 0 32 32" fill="none" xmlns="http://www.w3.org/2000/svg">
<path fill-rule="evenodd" clip-rule="evenodd" d="M22.6666 2.66663C26.3485 2.66663 29.3333 5.65139 29.3333 9.33329V18.6666C29.3333 19.2785 28.9169 19.8118 28.3234 19.9601L24 21.041V28C24 28.7363 23.403 29.3333 22.6666 29.3333C21.9303 29.3333 21.3333 28.7363 21.3333 28V3.99996C21.3333 3.26358 21.9303 2.66663 22.6666 2.66663ZM24 18.2923L26.6666 17.6256V9.33329C26.6666 7.59167 25.5536 6.11002 24 5.5609V18.2923Z" fill="#C19D6D"/>
<path d="M5.33335 3.99996C5.33335 3.26358 4.7364 2.66663 4.00002 2.66663C3.26364 2.66663 2.66669 3.26358 2.66669 3.99996V9.33329C2.66669 12.5586 4.95703 15.2489 8.00002 15.8666V28C8.00002 28.7363 8.59697 29.3333 9.33335 29.3333C10.0697 29.3333 10.6667 28.7363 10.6667 28V15.8666C13.7097 15.2489 16 12.5586 16 9.33329V3.99996C16 3.26358 15.4031 2.66663 14.6667 2.66663C13.9303 2.66663 13.3334 3.26358 13.3334 3.99996V9.33329C13.3334 11.0749 12.2203 12.5566 10.6667 13.1057V3.99996C10.6667 3.26358 10.0697 2.66663 9.33335 2.66663C8.59697 2.66663 8.00002 3.26358 8.00002 3.99996V13.1057C6.44643 12.5566 5.33335 11.0749 5.33335 9.33329V3.99996Z" fill="#C19D6D"/>
</svg>
