<svg width="18" height="10" viewBox="0 0 18 10" fill="none" xmlns="http://www.w3.org/2000/svg">
<path d="M17.1927 0.713512C17.2496 0.850539 17.2645 1.00135 17.2357 1.14686C17.2068 1.29238 17.1354 1.42607 17.0306 1.53101L9.53056 9.03101C9.46091 9.10074 9.37819 9.15606 9.28714 9.19381C9.19609 9.23155 9.0985 9.25098 8.99993 9.25098C8.90137 9.25098 8.80378 9.23155 8.71273 9.19381C8.62168 9.15606 8.53896 9.10074 8.46931 9.03101L0.969309 1.53101C0.8643 1.42612 0.792775 1.29243 0.763787 1.14687C0.7348 1.0013 0.749654 0.850412 0.806468 0.713294C0.863282 0.576177 0.959502 0.458999 1.08295 0.376596C1.20639 0.294193 1.35151 0.25027 1.49993 0.250386L16.4999 0.250386C16.6483 0.250417 16.7933 0.294433 16.9166 0.376868C17.0399 0.459303 17.136 0.576457 17.1927 0.713512Z" fill="white" fill-opacity="0.7"/>
</svg>
